<svg width="166" height="179" viewBox="0 0 166 179" fill="none" xmlns="http://www.w3.org/2000/svg">
<g clip-path="url(#clip0_1714_20)">
<path d="M104.32 73.17L64.43 79.24L76.93 102.79L104.32 73.17Z" fill="#00365F"/>
<path d="M154.13 133.47C154.13 133.47 154.16 133.41 154.18 133.38L118.45 112.7C118.45 112.7 118.42 112.75 118.4 112.78C110.16 127.1 94.71 136.74 77.01 136.75V178.03C109.97 178.03 138.75 160.1 154.13 133.47Z" fill="#00365F"/>
<path d="M154.17 133.38C161.69 120.32 166 105.17 166 89.01C166 72.85 161.63 57.47 153.99 44.34V44.31H153.97L118.21 64.95C118.21 64.95 118.26 65.02 118.27 65.06C122.37 72.1 124.71 80.29 124.71 89.02C124.71 97.75 122.43 105.73 118.43 112.71L154.16 133.39L154.17 133.38Z" fill="#00A7D7"/>
<path d="M77.01 0V41.28C94.59 41.28 109.94 50.8 118.21 64.94L153.97 44.3C138.56 17.8 109.87 0 77.01 0Z" fill="#95D3E4"/>
<path d="M0 44.31L35.76 64.93C44.05 50.78 59.41 41.27 76.99 41.27H77.01V0H76.99C44.12 0 15.42 17.81 0 44.31Z" fill="#CCE8F0"/>
</g>
<defs>
<clipPath id="clip0_1714_20">
<rect width="166" height="178.03" fill="white"/>
</clipPath>
</defs>
</svg>
