<svg width="292" height="127" viewBox="0 0 292 127" fill="none" xmlns="http://www.w3.org/2000/svg">
<g clip-path="url(#clip0_1714_81)">
<path d="M38.5439 41.3843H45.7447V77.1379H38.5439V41.3843Z" fill="#00365F"/>
<path d="M75.4878 56.1858V75.6478C75.4878 83.5486 71.8574 86.9689 63.1265 86.9689C55.9758 86.9689 52.2054 84.0386 52.2054 78.8781H59.1061C59.3061 80.9683 60.7462 82.2085 63.0765 82.2085C66.9569 82.2085 68.247 80.4183 68.247 75.9478V73.0175C66.4068 75.4478 64.1766 76.5479 61.0963 76.5479C55.3357 76.5479 51.3153 71.8274 51.3153 64.1366C51.3153 56.4458 55.4357 51.7253 61.1463 51.7253C64.2266 51.7253 66.6569 53.0155 68.397 55.5957L68.6471 52.2154H75.6978C75.5478 53.3055 75.4978 54.6456 75.4978 56.1858H75.4878ZM63.3165 71.4273C66.3968 71.4273 68.437 68.7471 68.437 64.1266C68.437 59.5061 66.3968 56.7758 63.3165 56.7758C60.2362 56.7758 58.406 59.3561 58.406 64.1266C58.406 68.8971 60.2862 71.4273 63.3165 71.4273Z" fill="#00365F"/>
<path d="M92.5695 77.688C85.2688 77.688 80.9483 73.0175 80.9483 64.9267C80.9483 56.3858 85.3688 51.6253 92.9196 51.6253C99.9703 51.6253 104.041 56.2458 104.041 64.5866C104.041 65.1367 104.041 65.6768 103.991 66.2268H87.899C87.949 70.6973 89.4892 72.8775 92.5195 72.8775C94.8998 72.8775 96.2899 71.7374 96.84 69.3471H103.241C102.841 74.5577 98.9202 77.688 92.5695 77.688ZM96.6399 61.5963C96.5899 58.016 95.1998 56.1858 92.4195 56.1858C89.9893 56.1858 88.2991 58.126 88.0991 61.5963H96.6399Z" fill="#00365F"/>
<path d="M119.242 77.728C112.492 77.728 108.071 72.7675 108.071 64.3266C108.071 56.3758 112.492 51.6153 119.742 51.6153C125.553 51.6153 129.323 55.0357 129.423 60.7062H122.573C122.273 57.5759 121.282 56.2358 119.192 56.2358C116.712 56.2358 115.572 58.8661 115.572 64.1766C115.572 69.8872 116.512 72.6175 119.342 72.6175C121.322 72.6175 122.423 70.9773 122.623 67.707H129.423C129.423 74.0576 125.653 77.738 119.242 77.738V77.728Z" fill="#00365F"/>
<path d="M134.244 41.3843H141.495V47.6949H134.244V41.3843ZM141.495 52.2054V77.1379H134.244V52.2054H141.495Z" fill="#00365F"/>
<path d="M148.045 59.9562C148.045 57.1259 147.945 54.5456 147.755 52.2054H154.406L154.656 56.6758C155.946 53.5955 158.726 52.0053 162.847 52.0053H163.047V58.556C162.497 58.506 161.957 58.456 161.457 58.456C157.636 58.456 155.396 60.4462 155.396 63.6665V77.1179H148.045V59.9362V59.9562Z" fill="#00365F"/>
<path d="M182.019 73.7576C179.889 76.5879 177.358 77.928 174.128 77.928C169.467 77.928 166.187 74.6977 166.187 70.0372C166.187 64.2766 170.758 61.0963 179.639 61.0963C180.189 61.0963 180.729 61.1463 181.279 61.1463C181.279 60.7962 181.329 60.4462 181.329 60.1062C181.329 57.0759 180.279 55.6857 177.848 55.6857C175.718 55.6857 174.618 56.7258 174.428 59.2161H167.227C167.277 54.0556 170.808 51.5653 177.848 51.5653C181.479 51.5653 184.259 52.5554 185.939 54.1956C188.079 56.2858 188.169 58.616 188.169 61.9364V69.5371C188.169 70.9273 188.319 73.4575 188.569 77.1379H182.319C182.219 76.2878 182.069 75.1477 182.019 73.7576ZM180.439 65.1667C175.668 65.1667 173.238 66.8069 173.238 69.5872C173.238 71.4673 174.678 72.8675 176.718 72.8675C179.599 72.8675 181.289 70.6873 181.289 66.5168C181.289 66.1168 181.289 65.6667 181.239 65.1767H180.449L180.439 65.1667Z" fill="#00365F"/>
<path d="M199.701 69.6372C199.801 71.8774 201.041 72.9175 203.721 72.9175C206.101 72.9175 207.441 71.8274 207.441 70.0872C207.441 67.657 205.011 67.5069 201.031 66.4168C195.82 65.0267 193.44 63.0865 193.44 59.2161C193.44 54.9957 197.36 51.6153 204.011 51.6153C209.772 51.6153 213.242 54.3456 213.242 58.566V58.766H206.891C206.641 56.8258 205.501 55.8857 203.421 55.8857C201.231 55.8857 199.941 56.9759 199.941 58.416C199.941 60.4462 202.271 60.6462 206.441 61.6963C211.852 63.0365 214.332 65.0767 214.332 69.0471C214.332 73.8176 210.012 77.738 203.461 77.738C196.91 77.738 193.03 74.8077 192.93 69.6472H199.681L199.701 69.6372Z" fill="#00365F"/>
<path d="M171.918 97.09C177.648 97.09 181.459 100.83 181.459 106.741C181.459 112.652 177.638 116.392 171.918 116.392C166.197 116.392 162.407 112.612 162.407 106.741C162.407 100.87 166.227 97.09 171.918 97.09ZM171.918 112.802C174.558 112.802 175.988 110.741 175.988 106.711C175.988 102.681 174.558 100.62 171.918 100.62C169.277 100.62 167.847 102.681 167.847 106.711C167.847 110.741 169.287 112.802 171.918 112.802Z" fill="#00A7D7"/>
<path d="M187.219 103.261C187.219 101.17 187.139 99.2602 186.999 97.53H191.92L192.1 100.83C193.06 98.5601 195.11 97.38 198.16 97.38H198.31V102.231C197.9 102.191 197.5 102.161 197.14 102.161C194.31 102.161 192.66 103.631 192.66 106.011V115.952H187.229V103.251L187.219 103.261Z" fill="#00A7D7"/>
<path d="M200.911 101.17V97.53H204.401V93.9697L209.722 91.9895V97.53H213.982V101.17H209.692V110.161C209.692 111.521 210.422 112.252 211.712 112.252C212.332 112.252 213.072 112.182 213.952 111.992V115.772C212.332 116.142 210.802 116.322 209.252 116.322C205.801 116.322 204.401 114.672 204.401 111.151V101.17H200.911Z" fill="#00A7D7"/>
<path d="M148.605 89.5292H140.784V115.952H146.145V93.9297H148.825C152.166 93.9297 153.706 94.8498 153.706 97.6C153.706 100.18 152.396 101.15 149.525 101.28L150.305 105.731C156.236 105.651 159.286 102.881 159.286 97.56C159.286 91.7995 155.946 89.5192 148.605 89.5192V89.5292Z" fill="#00A7D7"/>
<path d="M22.4923 41.3843H13.4514L0.490041 77.1379H7.70078L17.8218 48.435L22.7423 63.5765H16.2117L14.4015 69.4371H24.6325L27.1628 77.1379H34.9536L22.4923 41.3843Z" fill="#00365F"/>
<path d="M251.286 47.6449L225.263 51.5953L233.414 66.9669L251.286 47.6449Z" fill="#00365F"/>
<path d="M283.759 86.9689C283.759 86.9689 283.779 86.9289 283.789 86.9089L260.487 73.4176C260.487 73.4176 260.467 73.4576 260.457 73.4676C255.086 82.8085 245.015 89.0992 233.464 89.0992V116.022C254.956 116.022 273.728 104.331 283.759 86.9589V86.9689Z" fill="#00365F"/>
<path d="M283.789 86.9189C288.7 78.3981 291.5 68.517 291.5 57.976C291.5 47.4349 288.65 37.4038 283.669 28.843V28.823H283.659L260.337 42.2843C260.337 42.2843 260.367 42.3344 260.377 42.3544C263.047 46.9448 264.577 52.2854 264.577 57.976C264.577 63.6665 263.087 68.8671 260.477 73.4275L283.779 86.9189H283.789Z" fill="#00A7D7"/>
<path d="M233.464 -0.0800101V26.8428C244.925 26.8428 254.936 33.0534 260.347 42.2743L283.669 28.813C273.608 11.5312 254.906 -0.0800101 233.464 -0.0800101Z" fill="#95D3E4"/>
<path d="M183.239 28.823L206.561 42.2743C211.962 33.0434 221.983 26.8428 233.444 26.8428H233.454V-0.0800101H233.444C212.012 -0.0800101 193.29 11.5412 183.229 28.823H183.239Z" fill="#CCE8F0"/>
</g>
<defs>
<clipPath id="clip0_1714_81">
<rect width="291.97" height="126.72" fill="white"/>
</clipPath>
</defs>
</svg>
